
<svg viewBox="0 0 500 500" xmlns="http://www.w3.org/2000/svg">
  <path d="M 234.556 399.488 C 234.59 412.126 231.368 424.299 225.103 435.225 C 211.571 459.307 188.02 470.938 164.048 470.938 C 140.075 470.938 116.521 459.302 102.99 435.22 C 89.166 411.298 90.954 384.771 102.992 363.753 C 114.95 342.68 136.711 326.037 164.048 326.037 C 138.66 326.037 115.59 310.683 102.99 288.319 C 89.166 264.397 90.954 237.87 102.992 216.852 C 114.95 195.779 136.711 179.136 164.048 179.136 C 138.66 179.136 115.59 163.782 102.99 141.418 C 89.166 117.496 90.954 90.969 102.992 69.951 C 114.938 48.886 136.701 34.063 164.048 34.235 L 309.067 34.235 C 334.466 34.099 357.534 47.596 370.122 69.953 C 383.946 93.876 382.158 120.402 370.12 141.42 C 358.174 162.485 336.411 177.308 309.064 177.136 L 234.556 177.136 Z" style="stroke-width: 2px; fill-rule: nonzero; paint-order: stroke markers; fill: rgb(247, 193, 97); transform-origin: 235.535px 253.098px;"/>
  <circle cx="322.244" cy="249.483" r="80" style="stroke-width: 2.1924px; fill-rule: nonzero; paint-order: stroke markers; fill: rgb(247, 193, 97);" transform="matrix(0.8578770160675048, 0, 0, 0.8599620461463927, 29.774689164380554, 42.17692628766485)"/>
</svg>